<svg xmlns="http://www.w3.org/2000/svg" width="184.426" height="49.984" viewBox="0 0 184.426 49.984">			
    <g transform="scale(0.48) translate(10, 10)">
				<defs id="SvgjsDefs2578"><linearGradient id="SvgjsLinearGradient2585"><stop id="SvgjsStop2586" stop-color="#0D47A1" offset="0"></stop><stop id="SvgjsStop2587" stop-color="#1976D2" offset="0.5"></stop><stop id="SvgjsStop2588" stop-color="#0D47A1" offset="1"></stop></linearGradient><linearGradient id="SvgjsLinearGradient2589"><stop id="SvgjsStop2590" stop-color="#0D47A1" offset="0"></stop><stop id="SvgjsStop2591" stop-color="#1976D2" offset="0.5"></stop><stop id="SvgjsStop2592" stop-color="#0D47A1" offset="1"></stop></linearGradient><linearGradient id="SvgjsLinearGradient2593"><stop id="SvgjsStop2594" stop-color="#0D47A1" offset="0"></stop><stop id="SvgjsStop2595" stop-color="#1976D2" offset="0.5"></stop><stop id="SvgjsStop2596" stop-color="#0D47A1" offset="1"></stop></linearGradient></defs><g id="SvgjsG2579" featureKey="symbolFeature-0" transform="matrix(1.166479761613514,0,0,1.166479761613514,-8.39970142507353,-17.427329473130662)" fill="url(#SvgjsLinearGradient2585)"><title xmlns="http://www.w3.org/2000/svg">Artboard 9</title><path xmlns="http://www.w3.org/2000/svg" d="M91.56,56.18l-4.39-.81c-5.58-3.67-10.36-10.66-13.55-19.78l10.32-7.1A1.5,1.5,0,1,0,82.24,26L71.78,33.21A28.65,28.65,0,0,1,58.26,13.54L59.11,9a1.5,1.5,0,1,0-2.95-.55l-.79,4.25,0,0c-3.65,5.7-10.48,10.4-19.78,13.65l-6.25-9.09A1.5,1.5,0,0,0,26.84,19l6.34,9.22A28.65,28.65,0,0,1,13.5,41.73L9,40.89a1.5,1.5,0,0,0-.55,3l4.56.84c5.53,3.65,10.14,10.46,13.39,19.75l-10.13,7a1.5,1.5,0,1,0,1.7,2.47L28.2,66.81A28.66,28.66,0,0,1,41.73,86.55l-.81,4.36a1.5,1.5,0,0,0,1.2,1.75l.28,0a1.5,1.5,0,0,0,1.47-1.23L44.7,87c3.67-5.53,10.65-10.28,19.77-13.47L71.54,83.8A1.5,1.5,0,0,0,74,82.1L66.84,71.67A28.68,28.68,0,0,1,86.6,58.31l4.41.82.28,0a1.5,1.5,0,0,0,.27-3ZM57,20.11a31.66,31.66,0,0,0,12,14.94l-8.39,5.77c-3.91-2.08-5.81-5-5.73-8.88a1.49,1.49,0,0,0,0-.37ZM46.15,50.82l-6,4.16A16.45,16.45,0,0,0,37,49.12Zm-7.73-4.48A13.34,13.34,0,0,0,42.69,42l4,5.84Zm9.46,6.93L46.34,61.6A13.32,13.32,0,0,0,42,57.31ZM45,40.13A16.44,16.44,0,0,0,50.87,37l-1.7,9.18Zm5.84,13.59,4.16,6a16.45,16.45,0,0,0-5.86,3.14Zm2.58-1.54,8,1.48a13.5,13.5,0,0,0-4.08,4.2Zm-1.31-5.45,1.53-8.27A13.34,13.34,0,0,0,58,42.71Zm1.7,2.47,6-4.16A16.45,16.45,0,0,0,63,50.89Zm.41-30.36L51.95,31.19a13.47,13.47,0,0,1-8.74,6.32l-5.89-8.56C44.42,26.36,50.15,22.93,54.23,18.83ZM35,30.9l5.77,8.38c-2.08,3.91-5,5.79-8.88,5.73a1.47,1.47,0,0,0-.39,0L20.12,43A31.07,31.07,0,0,0,35,30.9ZM19,45.79,31.17,48a13.46,13.46,0,0,1,6.32,8.74l-8.56,5.89C26.36,55.59,23,49.87,19,45.79ZM42.95,80A31.66,31.66,0,0,0,30.88,65l8.39-5.77c3.91,2.08,5.81,5,5.73,8.88a1.48,1.48,0,0,0,.06.44Zm2.86,1L48.08,68.7a13.46,13.46,0,0,1,8.74-6.32l5.89,8.56C55.64,73.51,49.91,76.91,45.81,81ZM65,69,59.23,60.6c2-3.84,4.88-5.73,8.66-5.73H68l12,2.22A31.44,31.44,0,0,0,65,69Zm3.81-17a13.46,13.46,0,0,1-6.32-8.74l8.56-5.89c2.57,7.07,6,12.8,10.06,16.9Z"></path></g><g id="SvgjsG2580" featureKey="nameFeature-0" transform="matrix(1.7937834411585056,0,0,1.7937834411585056,118.22456932422433,-10.377377565028755)" fill="url(#SvgjsLinearGradient2589)"><path d="M1.4 40.08 c-0.4 0.04 -0.56 -1.36 -0.24 -1.44 c2.32 -0.6 4.12 -0.96 4.12 -3.92 l0 -17.76 c0 -2.56 -1.64 -3.24 -3.36 -3.68 c-0.32 -0.08 -0.12 -1.4 0.2 -1.36 c2.92 0.32 7.96 0.24 10.4 0.24 c3.64 0 6.28 -0.16 9.56 -0.24 c0.96 0 0.96 0.64 0.76 1.56 l-0.96 3.8 c-0.12 0.56 -1.12 0.56 -1.28 0 c-0.6 -1.96 -1.8 -3.08 -6.8 -3.08 c-2.8 0 -3.72 0.72 -3.72 2.8 l0 6.52 c0 1.04 0.52 1.24 1.32 1.24 l0.88 0 c3.24 0 6.04 -0.32 7.68 -1.8 c0.4 -0.36 1.28 -0.28 0.92 0.52 l-2.28 5.04 c-0.32 0.72 -0.92 0.64 -1.36 0.04 c-0.92 -1.28 -2.96 -1.8 -5.28 -1.8 l-0.56 0 c-0.8 0 -1.32 0.2 -1.32 1.24 l0 6.72 c0 2.28 0.96 3.12 4.28 3.12 c6.04 0 8.44 -2.76 9.4 -4.28 c0.28 -0.44 1.36 -0.24 1.36 0.44 c0 2.04 -1.72 6.08 -4.24 6.08 c-2.24 -0.12 -4.44 -0.24 -7.8 -0.24 c-3.68 0 -8.04 -0.12 -11.68 0.24 z M36.96 40.64 c-3.28 0 -8.28 -1.44 -7.8 -3.2 l0.4 -1.48 c1.12 -4.2 2.44 1.96 9.04 1.96 c3.36 0 5 -1.64 5 -3.96 c0 -1.88 -1.2 -2.68 -4.04 -4.44 l-3.88 -2.44 c-4.32 -2.72 -6.08 -4.4 -6.08 -7.4 c0 -4.92 4.8 -8.32 9.76 -8.32 c3.04 0 6.92 1.32 6.48 2.68 l-0.48 1.52 c-1.24 3.88 -2.24 -1.48 -7.72 -1.48 c-2.84 0 -4.32 1.44 -4.32 3.56 c0 1.8 1.08 2.8 3.76 4.44 l4.2 2.6 c4.24 2.64 5.96 4.44 5.96 7.32 c0 5 -4.92 8.64 -10.28 8.64 z M65.88 40.64 c-8.32 0 -14.44 -6.16 -14.44 -14.48 c0 -8.08 5.76 -14.8 14.52 -14.8 c8.36 0 14.44 6.12 14.44 14.44 c0 8.12 -5.72 14.84 -14.52 14.84 z M67.44 37.92 c3.52 0 8.2 -2.32 8.2 -9.88 c0 -8.08 -5.48 -13.96 -11.24 -13.96 c-3.52 0 -8.16 2.32 -8.16 9.84 c0 8.16 5.48 14 11.2 14 z M99.36 40.64 c-5.64 0 -11.96 -3 -11.96 -11.12 l0 -12.56 c0 -2.52 -1.28 -3.36 -3.24 -3.6 c-0.32 -0.04 -0.08 -1.36 0.24 -1.36 l10.92 0 c0.32 0 0.56 1.32 0.24 1.36 c-1.6 0.2 -3.2 0.8 -3.2 3.6 l0 12.76 c0 5.6 3.24 8.2 7.48 8.2 c4.36 0 7.84 -2.6 7.84 -8.2 l0 -12.76 c0 -2.6 -1.48 -3.32 -3.44 -3.6 c-0.28 -0.04 -0.08 -1.36 0.24 -1.36 l9 0 c0.28 0 0.52 1.32 0.2 1.36 c-1.6 0.2 -3.2 0.8 -3.2 3.6 l0 12.52 c0 7.36 -4.76 11.16 -11.12 11.16 z M116.64 40.08 c-0.4 0.04 -0.56 -1.36 -0.24 -1.44 c2.32 -0.6 4.12 -0.96 4.12 -3.92 l0 -17.76 c0 -2.8 -1.64 -3.36 -3.36 -3.6 c-0.32 -0.04 -0.08 -1.36 0.2 -1.36 l11.04 0 c0.28 0 0.48 1.32 0.2 1.36 c-1.68 0.2 -3.28 0.8 -3.28 3.6 l0 17.76 c0 2.28 0.96 3.12 4.28 3.12 c6.04 0 8.44 -2.76 9.4 -4.28 c0.28 -0.44 1.36 -0.24 1.36 0.44 c0 2.04 -1.72 6.08 -4.24 6.08 c-2.24 -0.12 -4.44 -0.24 -7.8 -0.24 c-3.68 0 -8.04 -0.12 -11.68 0.24 z"></path></g><g id="SvgjsG2581" featureKey="sloganFeature-0" transform="matrix(0.5171116282455341,0,0,0.5171116282455341,109.90267367526934,74.05595412977777)" fill="url(#SvgjsLinearGradient2593)"><path d="M19.5263953125 20 l0 -14.111 l2.9297 0 l0 14.111 l-2.9297 0 z M48.24234375 5.888999999999999 l2.9199 0 l0 14.111 l-3.3887 0 l-6.25 -10.088 l0 10.088 l-2.9199 0 l0 -14.111 l3.3496 0 l6.2891 10.029 l0 -10.029 z M75.5031640625 5.888999999999999 l0 2.5781 l-3.3496 0 l0 11.533 l-2.9004 0 l0 -11.533 l-3.3691 0 l0 -2.5781 l9.6191 0 z M98.4084375 8.467 l-5.2344 0 l0 3.2031 l4.6387 0 l0 2.5488 l-4.6387 0 l0 3.1934 l5.2344 0 l0 2.5879 l-8.1836 0 l0 -14.111 l8.1836 0 l0 2.5781 z M116.8603921875 17.4121 l4.4238 0 l0 2.5879 l-7.3535 0 l0 -14.111 l2.9297 0 l0 11.523 z M138.95511875 17.4121 l4.4238 0 l0 2.5879 l-7.3535 0 l0 -14.111 l2.9297 0 l0 11.523 z M158.1201453125 20 l0 -14.111 l2.9297 0 l0 14.111 l-2.9297 0 z M183.30079375 20.19531 c-4.0723 0 -7.0703 -2.8125 -7.0703 -7.2168 c0 -4.4629 3.0664 -7.2852 7.2168 -7.2852 c2.7246 0 4.9805 1.2012 6.2109 3.3203 l-2.5684 1.3672 c-0.74219 -1.4453 -2.0703 -2.1387 -3.6426 -2.1387 c-2.4414 0 -4.2773 1.6797 -4.2773 4.668 c0 2.8809 1.7188 4.7363 4.3848 4.7363 c1.8066 0 3.4668 -0.89844 3.8672 -2.959 l-3.8574 0 l0 -2.3535 l6.6309 0 l0 7.666 l-2.3047 0 l0 -1.9531 c-0.9082 1.3379 -2.4316 2.1484 -4.5898 2.1484 z M213.9211328125 8.467 l-5.2344 0 l0 3.2031 l4.6387 0 l0 2.5488 l-4.6387 0 l0 3.1934 l5.2344 0 l0 2.5879 l-8.1836 0 l0 -14.111 l8.1836 0 l0 2.5781 z M239.0821875 5.888999999999999 l2.9199 0 l0 14.111 l-3.3887 0 l-6.25 -10.088 l0 10.088 l-2.9199 0 l0 -14.111 l3.3496 0 l6.2891 10.029 l0 -10.029 z M264.4092078125 20.19531 c-4.1504 0 -7.2168 -2.8223 -7.2168 -7.2559 s3.0664 -7.2461 7.2168 -7.2461 c3.1445 0 5.6641 1.6113 6.6699 4.2871 l-2.7344 0.99609 c-0.625 -1.6406 -2.1191 -2.5879 -3.9355 -2.5879 c-2.4316 0 -4.2969 1.6992 -4.2969 4.5508 s1.8652 4.5605 4.2969 4.5605 c1.8164 0 3.3105 -0.95703 3.9355 -2.5977 l2.7344 0.99609 c-1.0059 2.6758 -3.5254 4.2969 -6.6699 4.2969 z M294.17015625 8.467 l-5.2344 0 l0 3.2031 l4.6387 0 l0 2.5488 l-4.6387 0 l0 3.1934 l5.2344 0 l0 2.5879 l-8.1836 0 l0 -14.111 l8.1836 0 l0 2.5781 z M332.08010625 20.19531 c-3.0273 0 -5.3906 -1.4551 -5.8203 -4.1016 l3.0273 -0.69336 c0.19531 1.582 1.3574 2.4023 2.9102 2.4023 c1.1914 0 2.1387 -0.52734 2.1289 -1.7188 c-0.0097656 -1.3281 -1.5723 -1.748 -3.291 -2.2754 c-2.0703 -0.64453 -4.2871 -1.4063 -4.2871 -4.0039 c0 -2.627 2.1484 -4.1113 4.9805 -4.1113 c2.4805 0 4.9805 1.0059 5.5469 3.7109 l-2.832 0.70313 c-0.26367 -1.4063 -1.2109 -2.0215 -2.5391 -2.0215 c-1.1816 0 -2.1875 0.48828 -2.1875 1.6504 c0 1.084 1.3867 1.4453 2.9883 1.9238 c2.1289 0.64453 4.6484 1.4648 4.6484 4.2773 c0 2.998 -2.5098 4.2578 -5.2734 4.2578 z M360.7473046875 8.467 l-5.2344 0 l0 3.2031 l4.6387 0 l0 2.5488 l-4.6387 0 l0 3.1934 l5.2344 0 l0 2.5879 l-8.1836 0 l0 -14.111 l8.1836 0 l0 2.5781 z M383.720659375 20 l-3.6719 -6.2109 l-0.84961 0 l0 6.2109 l-2.9297 0 l0 -14.111 l5.1172 0 c3.1934 0 4.541 1.8848 4.541 4.2188 c0 1.8945 -1.0742 3.125 -2.9883 3.5352 l4.248 6.3574 l-3.4668 0 z M379.199259375 8.32 l0 3.3691 l1.7285 0 c1.5625 0 2.1973 -0.66406 2.1973 -1.6797 c0 -1.0059 -0.63477 -1.6895 -2.1973 -1.6895 l-1.7285 0 z M410.8156484375 5.888999999999999 l3.1152 0 l-5.2148 14.111 l-3.2227 0 l-5.1855 -14.111 l3.1055 0 l3.7012 10.693 z M428.554715625 20 l0 -14.111 l2.9297 0 l0 14.111 l-2.9297 0 z M453.8818640625 20.19531 c-4.1504 0 -7.2168 -2.8223 -7.2168 -7.2559 s3.0664 -7.2461 7.2168 -7.2461 c3.1445 0 5.6641 1.6113 6.6699 4.2871 l-2.7344 0.99609 c-0.625 -1.6406 -2.1191 -2.5879 -3.9355 -2.5879 c-2.4316 0 -4.2969 1.6992 -4.2969 4.5508 s1.8652 4.5605 4.2969 4.5605 c1.8164 0 3.3105 -0.95703 3.9355 -2.5977 l2.7344 0.99609 c-1.0059 2.6758 -3.5254 4.2969 -6.6699 4.2969 z M483.6428125 8.467 l-5.2344 0 l0 3.2031 l4.6387 0 l0 2.5488 l-4.6387 0 l0 3.1934 l5.2344 0 l0 2.5879 l-8.1836 0 l0 -14.111 l8.1836 0 l0 2.5781 z"></path></g>
			</g>
		</svg>